0
SECTION
2
HEADER
9
$INSUNITS
70
4
9
$ACADVER
1
AC1014
9
$HANDSEED
5
FFFF
0
ENDSEC
0
SECTION
2
TABLES
0
TABLE
2
VPORT
5
8
100
AcDbSymbolTable
0
ENDTAB
0
TABLE
2
LTYPE
5
5
100
AcDbSymbolTable
0
LTYPE
5
14
100
AcDbSymbolTableRecord
100
AcDbLinetypeTableRecord
2
BYBLOCK
70
0
0
LTYPE
5
15
100
AcDbSymbolTableRecord
100
AcDbLinetypeTableRecord
2
BYLAYER
70
0
0
LTYPE
5
16
100
AcDbSymbolTableRecord
100
AcDbLinetypeTableRecord
2
DASHED
70
0
3
Dashed __ __ __ __ __ __ __ __ __ __ __ __ __ _
72
65
73
2
40
0.75
49
0.5
74
0
49
-0.25
74
0
0
ENDTAB
0
TABLE
2
LAYER
5
2
100
AcDbSymbolTable
70
2
0
LAYER
5
50
100
AcDbSymbolTableRecord
100
AcDbLayerTableRecord
2
0
70
0
62
7
6
CONTINUOUS
0
ENDTAB
0
TABLE
2
STYLE
5
3
100
AcDbSymbolTable
70
1
0
STYLE
5
11
100
AcDbSymbolTableRecord
100
AcDbTextStyleTableRecord
2
STANDARD
70
0
0
ENDTAB
0
TABLE
2
VIEW
5
6
100
AcDbSymbolTable
70
0
0
ENDTAB
0
TABLE
2
UCS
5
7
100
AcDbSymbolTable
70
0
0
ENDTAB
0
TABLE
2
APPID
5
9
100
AcDbSymbolTable
70
2
0
APPID
5
12
100
AcDbSymbolTableRecord
100
AcDbRegAppTableRecord
2
ACAD
70
0
0
ENDTAB
0
TABLE
2
DIMSTYLE
5
A
100
AcDbSymbolTable
70
1
0
ENDTAB
0
TABLE
2
BLOCK_RECORD
5
1
100
AcDbSymbolTable
70
1
0
BLOCK_RECORD
5
1F
100
AcDbSymbolTableRecord
100
AcDbBlockTableRecord
2
*MODEL_SPACE
0
BLOCK_RECORD
5
1B
100
AcDbSymbolTableRecord
100
AcDbBlockTableRecord
2
*PAPER_SPACE
0
ENDTAB
0
ENDSEC
0
SECTION
2
BLOCKS
0
BLOCK
5
20
100
AcDbEntity
100
AcDbBlockBegin
2
*MODEL_SPACE
0
ENDBLK
5
21
100
AcDbEntity
100
AcDbBlockEnd
0
BLOCK
5
1C
100
AcDbEntity
100
AcDbBlockBegin
2
*PAPER_SPACE
0
ENDBLK
5
1D
100
AcDbEntity
100
AcDbBlockEnd
0
ENDSEC
0
SECTION
2
ENTITIES
0
POINT
5
100
100
AcDbEntity
8
0
100
AcDbPoint
10
0
20
0
30
0
0
POINT
5
101
100
AcDbEntity
8
0
100
AcDbPoint
10
0
20
0
30
0
0
POINT
5
102
100
AcDbEntity
8
0
100
AcDbPoint
10
0
20
0
30
0
0
POINT
5
103
100
AcDbEntity
8
0
100
AcDbPoint
10
-108.17719448556633
20
7.0210212383512433e-16
30
0
0
POINT
5
104
100
AcDbEntity
8
0
100
AcDbPoint
10
-64.000000953674316
20
-90.000001341104507
30
0
0
POINT
5
105
100
AcDbEntity
8
0
100
AcDbPoint
10
64.000000953674316
20
-90.000001341104522
30
0
0
POINT
5
106
100
AcDbEntity
8
0
100
AcDbPoint
10
-64.000000953674316
20
90.000001341104507
30
0
0
POINT
5
107
100
AcDbEntity
8
0
100
AcDbPoint
10
64.000000953674316
20
90.000001341104522
30
0
0
POINT
5
108
100
AcDbEntity
8
0
100
AcDbPoint
10
-96.00000143051146
20
-59.000000879168496
30
0
0
POINT
5
109
100
AcDbEntity
8
0
100
AcDbPoint
10
96.00000143051146
20
-59.000000879168496
30
0
0
POINT
5
110
100
AcDbEntity
8
0
100
AcDbPoint
10
-96.00000143051146
20
59.000000879168496
30
0
0
POINT
5
111
100
AcDbEntity
8
0
100
AcDbPoint
10
96.00000143051146
20
59.000000879168496
30
0
0
POINT
5
112
100
AcDbEntity
8
0
100
AcDbPoint
10
-108.17719448556633
20
7.194493585948924e-16
30
0
0
POINT
5
113
100
AcDbEntity
8
0
100
AcDbPoint
10
0
20
0
30
0
0
POINT
5
114
100
AcDbEntity
8
0
100
AcDbPoint
10
-35.21359724278318
20
30
30
0
0
LINE
5
115
100
AcDbEntity
8
0
100
AcDbLine
10
84
20
100.00000149011611
30
0
11
-84
21
100.00000149011611
31
0
0
LINE
5
116
100
AcDbEntity
8
0
100
AcDbLine
10
-84
20
-100.00000149011611
30
0
11
84
21
-100.00000149011611
31
0
0
CIRCLE
5
117
100
AcDbEntity
8
0
100
AcDbCircle
10
-64.000000953674316
20
90.000001341104507
30
0
40
3.2499999999999929
210
0
220
0
230
1
0
CIRCLE
5
118
100
AcDbEntity
8
0
100
AcDbCircle
10
64.000000953674316
20
90.000001341104522
30
0
40
3.2499999999999929
210
0
220
0
230
1
0
CIRCLE
5
119
100
AcDbEntity
8
0
100
AcDbCircle
10
-64.000000953674316
20
-90.000001341104507
30
0
40
3.2500000000000022
210
0
220
0
230
1
0
CIRCLE
5
120
100
AcDbEntity
8
0
100
AcDbCircle
10
64.000000953674316
20
-90.000001341104522
30
0
40
3.2500000000000018
210
0
220
0
230
1
0
CIRCLE
5
121
100
AcDbEntity
8
0
100
AcDbCircle
10
-96.00000143051146
20
59.000000879168496
30
0
40
3.4999999999999964
210
0
220
0
230
1
0
CIRCLE
5
122
100
AcDbEntity
8
0
100
AcDbCircle
10
-96.00000143051146
20
-59.000000879168496
30
0
40
3.5000000000000027
210
0
220
0
230
1
0
CIRCLE
5
123
100
AcDbEntity
8
0
100
AcDbCircle
10
96.00000143051146
20
59.000000879168496
30
0
40
3.4999999999999964
210
0
220
0
230
1
0
CIRCLE
5
124
100
AcDbEntity
8
0
100
AcDbCircle
10
96.00000143051146
20
-59.000000879168496
30
0
40
3.4999999999999964
210
0
220
0
230
1
0
LINE
5
125
100
AcDbEntity
8
0
100
AcDbLine
10
-73.177194485566361
20
22.466922187725523
30
0
11
-73.177194485566361
21
-22.466922187725523
31
0
0
LINE
5
126
100
AcDbEntity
8
0
100
AcDbLine
10
73.177194485566346
20
22.466922187725515
30
0
11
73.177194485566346
21
-22.466922187725515
31
0
0
LWPOLYLINE
5
127
100
AcDbEntity
8
0
100
AcDbPolyline
90
4
70
1
43
0.0
10
-24.708452295285493
20
31.606467674091668
10
-45.718742190280857
20
31.606467674091668
10
-45.718742190280857
20
28.393532325908332
10
-24.708452295285493
20
28.393532325908332
0
LWPOLYLINE
5
128
100
AcDbEntity
8
0
100
AcDbPolyline
90
4
70
1
43
0.0
10
45.718742190280857
20
28.393532325908328
10
24.708452295285493
20
28.393532325908328
10
24.708452295285493
20
31.606467674091672
10
45.718742190280857
20
31.606467674091672
0
LWPOLYLINE
5
129
100
AcDbEntity
8
0
100
AcDbPolyline
90
4
70
1
43
0.0
10
-24.708452295285497
20
-31.606467674091668
10
-45.718742190280857
20
-31.606467674091668
10
-45.718742190280857
20
-28.393532325908332
10
-24.708452295285497
20
-28.393532325908332
0
LWPOLYLINE
5
130
100
AcDbEntity
8
0
100
AcDbPolyline
90
4
70
1
43
0.0
10
24.708452295285497
20
-31.606467674091672
10
45.718742190280857
20
-31.606467674091672
10
45.718742190280857
20
-28.393532325908328
10
24.708452295285497
20
-28.393532325908328
0
CIRCLE
5
131
100
AcDbEntity
8
0
100
AcDbCircle
10
70.000001043081284
20
40.000000596046448
30
0
40
10.000000000000004
210
0
220
0
230
1
0
CIRCLE
5
132
100
AcDbEntity
8
0
100
AcDbCircle
10
-70.000001043081284
20
-40.000000596046448
30
0
40
10.000000000000004
210
0
220
0
230
1
0
CIRCLE
5
133
100
AcDbEntity
8
0
100
AcDbCircle
10
64.500004606092759
20
-30.358855143067661
30
0
40
1.8000000000000003
210
0
220
0
230
1
0
CIRCLE
5
134
100
AcDbEntity
8
0
100
AcDbCircle
10
64.500004606092759
20
-73.358855143067657
30
0
40
1.8000000000000034
210
0
220
0
230
1
0
CIRCLE
5
135
100
AcDbEntity
8
0
100
AcDbCircle
10
-68.398465227742832
20
53.688796723429675
30
0
40
1.7999999999999972
210
0
220
0
230
1
0
CIRCLE
5
136
100
AcDbEntity
8
0
100
AcDbCircle
10
-37.398465227742847
20
37.679131028669502
30
0
40
1.7999999999999972
210
0
220
0
230
1
0
CIRCLE
5
137
100
AcDbEntity
8
0
100
AcDbCircle
10
-63.000001013278961
20
77.5
30
0
40
1.7999999999999972
210
0
220
0
230
1
0
CIRCLE
5
138
100
AcDbEntity
8
0
100
AcDbCircle
10
-63.000001013278961
20
62.461600216212503
30
0
40
1.7999999999999972
210
0
220
0
230
1
0
LINE
5
139
100
AcDbEntity
8
0
100
AcDbLine
10
-84
20
100.00000149011611
30
0
11
-83.999999999999986
21
75.493674526059053
31
0
0
LINE
5
140
100
AcDbEntity
8
0
100
AcDbLine
10
-84
20
-100.00000149011611
30
0
11
-84
21
-75.493674526059038
31
0
0
LINE
5
141
100
AcDbEntity
8
0
100
AcDbLine
10
-106.6771944855664
20
22.466922187725501
30
0
11
-73.177194485566361
21
22.466922187725523
31
0
0
LINE
5
142
100
AcDbEntity
8
0
100
AcDbLine
10
-73.177194485566361
20
-22.466922187725523
30
0
11
-106.67719448556637
21
-22.466922187725547
31
0
0
LINE
5
143
100
AcDbEntity
8
0
100
AcDbLine
10
-83.999999999999986
20
75.493674526059053
30
0
11
-106.67719448556645
21
75.493674526059038
31
0
0
LINE
5
144
100
AcDbEntity
8
0
100
AcDbLine
10
-84
20
-75.493674526059038
30
0
11
-106.67719448556633
21
-75.493674526059038
31
0
0
LINE
5
145
100
AcDbEntity
8
0
100
AcDbLine
10
-106.67719448556645
20
75.493674526059038
30
0
11
-106.6771944855664
21
22.466922187725501
31
0
0
LINE
5
146
100
AcDbEntity
8
0
100
AcDbLine
10
-106.67719448556637
20
-22.466922187725547
30
0
11
-106.67719448556633
21
-75.493674526059038
31
0
0
LINE
5
147
100
AcDbEntity
8
0
100
AcDbLine
10
84
20
100.00000149011611
30
0
11
83.999999999999986
21
75.493674526059053
31
0
0
LINE
5
148
100
AcDbEntity
8
0
100
AcDbLine
10
83.999999999999986
20
75.493674526059053
30
0
11
106.67719448556645
21
75.493674526059038
31
0
0
LINE
5
149
100
AcDbEntity
8
0
100
AcDbLine
10
106.67719448556645
20
75.493674526059038
30
0
11
106.6771944855664
21
22.466922187725498
31
0
0
LINE
5
150
100
AcDbEntity
8
0
100
AcDbLine
10
106.6771944855664
20
22.466922187725498
30
0
11
73.177194485566361
21
22.466922187725523
31
0
0
LINE
5
151
100
AcDbEntity
8
0
100
AcDbLine
10
73.177194485566361
20
-22.466922187725533
30
0
11
106.67719448556637
21
-22.466922187725551
31
0
0
LINE
5
152
100
AcDbEntity
8
0
100
AcDbLine
10
106.67719448556637
20
-22.466922187725551
30
0
11
106.67719448556633
21
-75.49367452605901
31
0
0
LINE
5
153
100
AcDbEntity
8
0
100
AcDbLine
10
84
20
-75.49367452605901
30
0
11
106.67719448556633
21
-75.49367452605901
31
0
0
LINE
5
154
100
AcDbEntity
8
0
100
AcDbLine
10
84
20
-100.00000149011611
30
0
11
84
21
-75.49367452605901
31
0
0
ENDSEC
0
SECTION
2
OBJECTS
0
DICTIONARY
5
C
100
AcDbDictionary
3
ACAD_GROUP
350
D
3
ACAD_MLINESTYLE
350
17
0
DICTIONARY
5
D
100
AcDbDictionary
0
DICTIONARY
5
1A
330
C
100
AcDbDictionary
0
DICTIONARY
5
17
100
AcDbDictionary
0
ENDSEC
0
EOF
